<svg width="300" height="200" viewBox="0 0 300 200" fill="none" xmlns="http://www.w3.org/2000/svg">
  <rect width="300" height="200" rx="10" fill="#F8FAFC"/>
  <circle cx="150" cy="100" r="80" fill="#38BDF8" fill-opacity="0.1"/>
  <path d="M150 40C121.222 40 98 63.222 98 92C98 120.778 121.222 144 150 144C178.778 144 202 120.778 202 92C202 63.222 178.778 40 150 40Z" fill="#38BDF8"/>
  <path d="M150 60C132.327 60 118 74.327 118 92C118 109.673 132.327 124 150 124C167.673 124 182 109.673 182 92C182 74.327 167.673 60 150 60Z" fill="white"/>
  <path d="M150 80C143.373 80 138 85.373 138 92C138 98.627 143.373 104 150 104C156.627 104 162 98.627 162 92C162 85.373 156.627 80 150 80Z" fill="#38BDF8"/>
  <rect x="100" y="160" width="100" height="20" rx="5" fill="#38BDF8"/>
</svg>
